<?xml version="1.0" encoding="UTF-8"?>
<svg version="1.1" xmlns="http://www.w3.org/2000/svg" width="600" height="600">
<path d="M0 0 C2.65527344 1.25244141 2.65527344 1.25244141 5.359375 2.8515625 C6.88884766 3.74584961 6.88884766 3.74584961 8.44921875 4.65820312 C9.53847656 5.30724609 10.62773437 5.95628906 11.75 6.625 C12.90697352 7.30502178 14.06453713 7.98404047 15.22265625 8.66210938 C17.62665148 10.07067324 20.02805773 11.48350641 22.42773438 12.89941406 C27.9283488 16.14016978 33.46603409 19.31666323 39 22.5 C41.16684034 23.74969892 43.3335065 24.99969989 45.5 26.25 C47.10875 27.178125 47.10875 27.178125 48.75 28.125 C95.33333333 55 141.91666667 81.875 188.5 108.75 C189.57282227 109.36891113 190.64564453 109.98782227 191.75097656 110.62548828 C193.91447476 111.87371034 196.07788643 113.12208239 198.24121094 114.37060547 C203.70565017 117.52405256 209.17163645 120.67476096 214.640625 123.8203125 C215.74792969 124.45775391 216.85523438 125.09519531 217.99609375 125.75195312 C220.04498654 126.9313578 222.09439311 128.10987081 224.14453125 129.28710938 C226.11941634 130.42444333 228.07754642 131.59132097 230.01868343 132.78534222 C233.04785205 134.56887941 236.1348597 135.89690807 239.39117527 137.21573353 C254.03950179 143.66695943 254.03950179 143.66695943 257.28351474 150.83678985 C259.21079293 158.73085615 258.98867862 166.82126969 258.80264747 174.89424551 C258.74212971 178.57113685 258.80941055 182.2461286 258.8598175 185.92286682 C258.93809215 193.10989832 258.89890533 200.29161499 258.81761431 207.47842904 C258.72651032 215.8557825 258.74607164 224.23181767 258.76800621 232.60950462 C258.80272021 247.56064115 258.72711696 262.50922878 258.59350586 277.4597168 C258.46400581 291.95130013 258.42868243 306.43936134 258.4909668 320.93139648 C258.55878014 336.73476891 258.57251788 352.53649494 258.49425179 368.33987695 C258.48598596 370.02607189 258.47775543 371.71226701 258.46956062 373.3984623 C258.465463 374.22798163 258.46136538 375.05750097 258.45714359 375.91215726 C258.43175042 381.74532984 258.44383343 387.57773293 258.46984673 393.41087914 C258.50015212 400.52260331 258.46842733 407.63094124 258.35881376 414.74193474 C258.30433112 418.36811958 258.27640518 421.98910698 258.32257462 425.61552811 C258.56463571 446.76105275 258.56463571 446.76105275 254.32794499 452.11168313 C250.34328466 455.51076766 245.98579971 457.50281566 241.07627404 459.22304881 C237.99385072 460.37650564 235.36651978 462.00718609 232.56640625 463.73046875 C230.56553379 464.88355831 228.56422606 466.03589289 226.5625 467.1875 C224.31379049 468.4830528 222.06509292 469.77862632 219.81640625 471.07421875 C218.68734863 471.72438965 217.55829102 472.37456055 216.39501953 473.04443359 C210.9283002 476.19332054 205.46425113 479.34683264 200 482.5 C197.83334689 483.7500235 195.66668021 485.00002347 193.5 486.25 C192.4275 486.86875 191.355 487.4875 190.25 488.125 C143.66666667 515 97.08333333 541.875 50.5 568.75 C49.42596924 569.36963623 48.35193848 569.98927246 47.24536133 570.62768555 C45.09416776 571.86875254 42.94296345 573.10980093 40.79174805 574.35083008 C35.74037001 577.26498344 30.6890969 580.17931818 25.63821411 583.09432983 C23.84933082 584.12673478 22.06041283 585.15907956 20.27148438 586.19140625 C18.02662364 587.48685948 15.7818281 588.7824257 13.53710938 590.078125 C11.55163517 591.22383301 9.56369217 592.36527847 7.57275391 593.50146484 C6.00277608 594.41591957 4.44791156 595.35789039 2.92333984 596.34619141 C0.14772627 598.12049044 -1.49274023 599.03790551 -4.8293457 598.78857422 C-8.27743067 597.93100015 -10.79972831 596.68117503 -13.8671875 594.89453125 C-15.54748047 593.92483398 -15.54748047 593.92483398 -17.26171875 592.93554688 C-18.46624802 592.22803852 -19.67067243 591.52035164 -20.875 590.8125 C-22.1336436 590.08187034 -23.39276536 589.35206382 -24.65234375 588.62304688 C-27.84234464 586.77377321 -31.02601371 584.91391725 -34.20739746 583.04986572 C-36.86784844 581.49173099 -39.53168463 579.93941466 -42.1953125 578.38671875 C-45.10381971 576.69045402 -48.01169254 574.99315571 -50.91748047 573.29223633 C-58.5822146 568.80943615 -66.28522848 564.39582128 -74 560 C-83.67481219 554.48736165 -93.31282137 548.91575433 -102.921875 543.2890625 C-110.5857377 538.80833854 -118.28678835 534.39493248 -126 530 C-135.67481219 524.48736165 -145.31282137 518.91575433 -154.921875 513.2890625 C-162.5857377 508.80833854 -170.28678835 504.39493248 -178 500 C-187.67196575 494.48898353 -197.30793173 488.92034505 -206.91308594 483.29345703 C-212.26416822 480.16386317 -217.62893936 477.06009755 -223.015625 473.9921875 C-223.61741577 473.64931702 -224.21920654 473.30644653 -224.8392334 472.95318604 C-227.72674201 471.30893444 -230.61597168 469.66787933 -233.5078125 468.03125 C-235.67049548 466.80209924 -237.81616839 465.54249969 -239.94308949 464.25245476 C-242.87838545 462.53474123 -245.83213473 461.23564641 -248.9921751 459.98376656 C-255.51710022 457.15058752 -262.2771681 454.10854633 -265.16461968 447.22265768 C-266.94219333 439.33213662 -266.73170797 431.26522369 -266.57051623 423.22182012 C-266.5187572 419.54428447 -266.58297099 415.86842385 -266.63188171 412.19110107 C-266.70901507 405.00097285 -266.6790675 397.81516477 -266.61055384 390.62510119 C-266.55705517 384.7803769 -266.54400557 378.9368305 -266.55949974 373.09189224 C-266.56169823 372.25824626 -266.56389672 371.42460027 -266.56616184 370.56569228 C-266.57083971 368.8718737 -266.57562686 367.17805542 -266.58052208 365.48423745 C-266.62197543 349.62431825 -266.5434313 333.76676483 -266.42186709 317.90736951 C-266.32021816 304.31188934 -266.31471371 290.71920027 -266.38110352 277.12353516 C-266.45821588 261.31546248 -266.4807339 245.50896311 -266.41291112 229.70079339 C-266.40578557 228.01402121 -266.39870954 226.32724882 -266.39168358 224.64047623 C-266.38817593 223.8106619 -266.38466828 222.98084757 -266.38105435 222.12588736 C-266.35995657 216.29018532 -266.37708417 210.45531626 -266.4087162 204.61968613 C-266.4460104 197.50435474 -266.42170259 190.39232747 -266.31978736 183.27757846 C-266.26926781 179.64932496 -266.2453773 176.02630793 -266.29565811 172.39793015 C-266.56183161 151.23901119 -266.56183161 151.23901119 -262.32927871 145.88765001 C-258.34495592 142.48720407 -253.98715887 140.49607392 -249.07678545 138.77669549 C-245.9938485 137.62371013 -243.36672134 135.99307358 -240.56640625 134.26953125 C-238.56553379 133.11644169 -236.56422606 131.96410711 -234.5625 130.8125 C-232.31379049 129.5169472 -230.06509292 128.22137368 -227.81640625 126.92578125 C-226.68734863 126.27561035 -225.55829102 125.62543945 -224.39501953 124.95556641 C-218.9283002 121.80667946 -213.46425113 118.65316736 -208 115.5 C-205.83334689 114.2499765 -203.66668021 112.99997653 -201.5 111.75 C-200.4275 111.13125 -199.355 110.5125 -198.25 109.875 C-151.66666667 83 -105.08333333 56.125 -58.5 29.25 C-57.42596924 28.63036377 -56.35193848 28.01072754 -55.24536133 27.37231445 C-53.09416776 26.13124746 -50.94296345 24.89019907 -48.79174805 23.64916992 C-43.74037001 20.73501656 -38.6890969 17.82068182 -33.63821411 14.90567017 C-31.84933082 13.87326522 -30.06041283 12.84092044 -28.27148438 11.80859375 C-26.02662364 10.51314052 -23.7818281 9.2175743 -21.53710938 7.921875 C-19.55163517 6.77616699 -17.56369217 5.63472153 -15.57275391 4.49853516 C-14.00277608 3.58408043 -12.44791156 2.64210961 -10.92333984 1.65380859 C-6.77140267 -1.00029937 -4.72972099 -1.16431259 0 0 Z " fill="#398583" transform="translate(304,1)"/>
<path d="M0 0 C3.06121744 1.18905061 5.73867231 2.53869086 8.56933594 4.19604492 C10.09880859 5.08549805 10.09880859 5.08549805 11.65917969 5.99291992 C13.29306641 6.95391602 13.29306641 6.95391602 14.95996094 7.93432617 C16.11717066 8.60939256 17.27472951 9.28386079 18.43261719 9.95776367 C20.83566676 11.35698422 23.23720013 12.75875553 25.63769531 14.16235352 C31.14782905 17.38131982 36.6800371 20.56202462 42.20996094 23.74682617 C44.37673072 24.99664741 46.54339709 26.24664798 48.70996094 27.49682617 C50.31871094 28.42495117 50.31871094 28.42495117 51.95996094 29.37182617 C144.58496094 82.80932617 144.58496094 82.80932617 237.20996094 136.24682617 C237.20996094 159.67682617 237.20996094 183.10682617 237.20996094 207.24682617 C79.46996094 207.24682617 -78.27003906 207.24682617 -240.79003906 207.24682617 C-240.79003906 183.81682617 -240.79003906 160.38682617 -240.79003906 136.24682617 C-231.55003906 130.96682617 -222.31003906 125.68682617 -212.79003906 120.24682617 C-205.19386976 115.86998576 -197.59855887 111.4919134 -190.0078125 107.10571289 C-184.60333261 103.98358012 -179.19656494 100.86541413 -173.79003906 97.74682617 C-171.62336156 96.49684496 -169.45669489 95.24684496 -167.29003906 93.99682617 C-128.29003906 71.49682617 -89.29003906 48.99682617 -50.29003906 26.49682617 C-49.21560547 25.87694824 -48.14117187 25.25707031 -47.03417969 24.6184082 C-44.8870877 23.37972615 -42.73995292 22.14111827 -40.59277344 20.90258789 C-35.49415097 17.96149267 -30.3959861 15.01961204 -25.29931641 12.07513428 C-22.87956242 10.67724017 -20.45956644 9.27976528 -18.03955078 7.88232422 C-16.32202854 6.89030293 -14.60485855 5.89767188 -12.88769531 4.9050293 C-11.33888672 4.01074219 -11.33888672 4.01074219 -9.75878906 3.09838867 C-8.38883789 2.30682373 -8.38883789 2.30682373 -6.99121094 1.49926758 C-2.95450496 -0.79757156 -2.95450496 -0.79757156 0 0 Z " fill="#02BAB4" transform="translate(301.7900390625,24.753173828125)"/>
<path d="M0 0 C157.74 0 315.48 0 478 0 C478 12.21 478 24.42 478 37 C473.91625 39.330625 469.8325 41.66125 465.625 44.0625 C452.80199699 51.38649421 440.00387069 58.75285611 427.21777344 66.14111328 C421.81329355 69.26324605 416.40652588 72.38141204 411 75.5 C408.8333225 76.74998122 406.66665583 77.99998121 404.5 79.25 C346 113 346 113 287.5 146.75 C286.42572754 147.36987793 285.35145508 147.98975586 284.24462891 148.62841797 C282.09623488 149.86766466 279.94747675 151.10628036 277.79833984 152.34423828 C272.71226083 155.27497632 267.63019771 158.21211416 262.56085205 161.17169189 C260.1618043 162.57178169 257.7606759 163.96828095 255.359375 165.36450195 C253.66201774 166.35343237 251.96769098 167.34755838 250.2734375 168.34179688 C248.73429687 169.23608398 248.73429687 169.23608398 247.1640625 170.1484375 C246.26123535 170.67614746 245.3584082 171.20385742 244.42822266 171.74755859 C242.19691672 172.89843326 240.48701328 173.70874838 238 174 C235.28065204 172.75312408 232.81726523 171.44941548 230.25 169.9375 C229.46415527 169.48777832 228.67831055 169.03805664 227.86865234 168.57470703 C225.23761484 167.06345542 222.61828991 165.53322011 220 164 C218.15379919 162.92551771 216.30744169 161.85130459 214.4609375 160.77734375 C211.5022935 159.05397626 208.54512695 157.32820601 205.59082031 155.59741211 C197.75818283 151.00995251 189.88716021 146.49269988 182 142 C172.32499637 136.48770144 162.6871741 130.91575168 153.078125 125.2890625 C145.4142623 120.80833854 137.71321165 116.39493248 130 112 C120.32518781 106.48736165 110.68717863 100.91575433 101.078125 95.2890625 C93.4142623 90.80833854 85.71321165 86.39493248 78 82 C68.33403043 76.49240011 58.7046795 70.92613821 49.10449219 65.30444336 C40.03596608 60.00239051 30.91755202 54.78967833 21.7890625 49.59179688 C20.68820313 48.96466797 19.58734375 48.33753906 18.453125 47.69140625 C17.49567383 47.14685791 16.53822266 46.60230957 15.55175781 46.04125977 C10.35288628 43.05337381 5.17948563 40.02136662 0 37 C0 24.79 0 12.58 0 0 Z " fill="#01BAB4" transform="translate(61,402)"/>
<path d="M0 0 C2.65527344 1.25244141 2.65527344 1.25244141 5.359375 2.8515625 C6.88884766 3.74584961 6.88884766 3.74584961 8.44921875 4.65820312 C9.53847656 5.30724609 10.62773437 5.95628906 11.75 6.625 C12.90697352 7.30502178 14.06453713 7.98404047 15.22265625 8.66210938 C17.62665148 10.07067324 20.02805773 11.48350641 22.42773438 12.89941406 C27.9283488 16.14016978 33.46603409 19.31666323 39 22.5 C41.16684034 23.74969892 43.3335065 24.99969989 45.5 26.25 C47.10875 27.178125 47.10875 27.178125 48.75 28.125 C95.33333333 55 141.91666667 81.875 188.5 108.75 C189.57282227 109.36891113 190.64564453 109.98782227 191.75097656 110.62548828 C193.91447476 111.87371034 196.07788643 113.12208239 198.24121094 114.37060547 C203.70565017 117.52405256 209.17163645 120.67476096 214.640625 123.8203125 C215.74792969 124.45775391 216.85523438 125.09519531 217.99609375 125.75195312 C220.04498654 126.9313578 222.09439311 128.10987081 224.14453125 129.28710938 C226.17843628 130.45843284 228.18631573 131.67567604 230.17138672 132.92797852 C233.21842915 134.7360571 236.27813067 135.77918194 239.64501953 136.86694336 C246.3191562 139.35649694 251.90589721 141.97015762 256 148 C260.14248433 160.12913659 258.15026499 174.81060621 257.51062012 187.36828613 C257.28404456 192.28707621 257.18478092 197.20833731 257.07421875 202.13085938 C256.83943376 211.76044542 256.46492398 221.37896803 256 231 C251.38 231 246.76 231 242 231 C242.10062744 228.83163574 242.20125488 226.66327148 242.30493164 224.42919922 C242.62102973 217.21439442 242.79601547 210.00092571 242.90415287 202.78016472 C242.9739079 198.40535707 243.08895926 194.04219203 243.31323242 189.67236328 C244.99543537 170.91645422 244.99543537 170.91645422 238.63638306 154.10263062 C232.77793565 149.3947062 226.31689899 146.71811304 219.27226257 144.26101685 C213.83756853 142.16667368 209.00544422 139.11152557 204.0625 136.0625 C202.40335571 135.09183594 202.40335571 135.09183594 200.71069336 134.1015625 C199.84581299 133.59367188 198.98093262 133.08578125 198.08984375 132.5625 C191.78429581 128.8678669 185.45705564 125.21147319 179.125 121.5625 C178.04484619 120.93996338 176.96469238 120.31742676 175.85180664 119.67602539 C173.66203666 118.41423174 171.47217645 117.15259466 169.28222656 115.89111328 C163.85340058 112.76319852 158.42680719 109.63141552 153 106.5 C150.83334417 105.24998121 148.6666775 103.99998122 146.5 102.75 C101 76.5 101 76.5 55.5 50.25 C54.42637207 49.63060547 53.35274414 49.01121094 52.24658203 48.37304688 C50.09128689 47.1295949 47.93601327 45.88610564 45.78076172 44.64257812 C40.77662326 41.75537125 35.7722948 38.8684957 30.76715088 35.98303223 C29.01658759 34.97380896 27.26609589 33.96446164 25.515625 32.95507812 C23.33607835 31.6983234 21.15640168 30.44179414 18.9765625 29.18554688 C17.97625 28.60869141 16.9759375 28.03183594 15.9453125 27.4375 C14.96852539 26.87933594 13.99173828 26.32117188 12.98535156 25.74609375 C10.89766292 24.5250315 8.8333069 23.26358928 6.78808594 21.97265625 C5.74168945 21.32167969 4.69529297 20.67070312 3.6171875 20 C2.68245605 19.401875 1.74772461 18.80375 0.78466797 18.1875 C-2.69472345 16.70374059 -4.39552013 16.96235574 -8 18 C-10.47998858 19.11228818 -10.47998858 19.11228818 -12.8515625 20.59765625 C-14.23021484 21.4165332 -14.23021484 21.4165332 -15.63671875 22.25195312 C-16.62285156 22.84943359 -17.60898437 23.44691406 -18.625 24.0625 C-20.78304329 25.34641601 -22.94193216 26.62891157 -25.1015625 27.91015625 C-26.22981445 28.58191895 -27.35806641 29.25368164 -28.52050781 29.94580078 C-33.71993252 33.02725948 -38.97657218 36.00852273 -44.23114014 38.99459839 C-53.52002224 44.27430269 -62.77979626 49.60100369 -72 55 C-81.22800529 60.4035646 -90.4999467 65.72652361 -99.79101562 71.02050781 C-107.88744133 75.63502804 -115.95806509 80.29095255 -124 85 C-133.22800529 90.4035646 -142.4999467 95.72652361 -151.79101562 101.02050781 C-159.88744133 105.63502804 -167.95806509 110.29095255 -176 115 C-185.22163754 120.39983589 -194.48682369 125.71978897 -203.7718811 131.00942993 C-213.25042429 136.41058807 -222.69065521 141.87479766 -232.09960938 147.39648438 C-233.00904297 147.92951172 -233.91847656 148.46253906 -234.85546875 149.01171875 C-235.63559326 149.47022217 -236.41571777 149.92872559 -237.21948242 150.40112305 C-241.12132353 152.64479303 -245.06547461 154.81415256 -249 157 C-249.33 181.42 -249.66 205.84 -250 231 C-254.62 231 -259.24 231 -264 231 C-264.39499659 220.35221539 -264.69646896 209.70618769 -264.88080692 199.05255318 C-264.96931916 194.10433305 -265.08916516 189.1611435 -265.2824707 184.21582031 C-265.46809732 179.43667831 -265.56899097 174.66234854 -265.61291313 169.879879 C-265.64417637 168.06200178 -265.70524927 166.24437085 -265.79741096 164.42856216 C-266.35977068 152.88258902 -266.35977068 152.88258902 -264 148 C-259.87744135 143.67597647 -254.50106446 141.26311535 -249.08624649 138.93033028 C-246.09666886 137.59717305 -243.36862998 135.95905664 -240.56640625 134.26953125 C-238.56553379 133.11644169 -236.56422606 131.96410711 -234.5625 130.8125 C-232.31379049 129.5169472 -230.06509292 128.22137368 -227.81640625 126.92578125 C-226.68734863 126.27561035 -225.55829102 125.62543945 -224.39501953 124.95556641 C-218.9283002 121.80667946 -213.46425113 118.65316736 -208 115.5 C-205.83334689 114.2499765 -203.66668021 112.99997653 -201.5 111.75 C-200.4275 111.13125 -199.355 110.5125 -198.25 109.875 C-151.66666667 83 -105.08333333 56.125 -58.5 29.25 C-57.42596924 28.63036377 -56.35193848 28.01072754 -55.24536133 27.37231445 C-53.09416776 26.13124746 -50.94296345 24.89019907 -48.79174805 23.64916992 C-43.74037001 20.73501656 -38.6890969 17.82068182 -33.63821411 14.90567017 C-31.84933082 13.87326522 -30.06041283 12.84092044 -28.27148438 11.80859375 C-26.02662364 10.51314052 -23.7818281 9.2175743 -21.53710938 7.921875 C-19.55163517 6.77616699 -17.56369217 5.63472153 -15.57275391 4.49853516 C-14.00277608 3.58408043 -12.44791156 2.64210961 -10.92333984 1.65380859 C-6.77140267 -1.00029937 -4.72972099 -1.16431259 0 0 Z " fill="#00B9B3" transform="translate(304,1)"/>
<path d="M0 0 C4.62 0 9.24 0 14 0 C13.89937256 1.13840332 13.79874512 2.27680664 13.69506836 3.44970703 C11.34020975 24.04726831 11.34020975 24.04726831 17.11425781 43.04296875 C22.81711908 47.81513306 29.59331287 50.22608949 36.54003906 52.67333984 C42.05845401 54.78927738 46.91865388 57.84978664 51.9375 60.9375 C53.92561901 62.10887469 55.91653533 63.275514 57.91015625 64.4375 C58.9067627 65.02144531 59.90336914 65.60539062 60.93017578 66.20703125 C66.2332725 69.30437038 71.55394935 72.37113858 76.875 75.4375 C77.95515381 76.06003662 79.03530762 76.68257324 80.14819336 77.32397461 C82.33796334 78.58576826 84.52782355 79.84740534 86.71777344 81.10888672 C92.14659942 84.23680148 97.57319281 87.36858448 103 90.5 C105.16665583 91.75001879 107.3333225 93.00001878 109.5 94.25 C139.83333333 111.75 170.16666667 129.25 200.5 146.75 C201.57362793 147.36939453 202.64725586 147.98878906 203.75341797 148.62695312 C205.90871311 149.8704051 208.06398673 151.11389436 210.21923828 152.35742188 C215.22337674 155.24462875 220.2277052 158.1315043 225.23284912 161.01696777 C226.98341241 162.02619104 228.73390411 163.03553836 230.484375 164.04492188 C232.66392165 165.3016766 234.84359832 166.55820586 237.0234375 167.81445312 C238.02375 168.39130859 239.0240625 168.96816406 240.0546875 169.5625 C241.03147461 170.12066406 242.00826172 170.67882812 243.01464844 171.25390625 C245.10233708 172.4749685 247.1666931 173.73641072 249.21191406 175.02734375 C250.25831055 175.67832031 251.30470703 176.32929687 252.3828125 177 C253.31754395 177.598125 254.25227539 178.19625 255.21533203 178.8125 C258.69472345 180.29625941 260.39552013 180.03764426 264 179 C266.47998858 177.88771182 266.47998858 177.88771182 268.8515625 176.40234375 C269.77066406 175.85642578 270.68976563 175.31050781 271.63671875 174.74804688 C272.62285156 174.15056641 273.60898437 173.55308594 274.625 172.9375 C276.78304329 171.65358399 278.94193216 170.37108843 281.1015625 169.08984375 C282.22981445 168.41808105 283.35806641 167.74631836 284.52050781 167.05419922 C289.71993252 163.97274052 294.97657218 160.99147727 300.23114014 158.00540161 C309.52002224 152.72569731 318.77979626 147.39899631 328 142 C337.22800529 136.5964354 346.4999467 131.27347639 355.79101562 125.97949219 C363.88744133 121.36497196 371.95806509 116.70904745 380 112 C389.22800529 106.5964354 398.4999467 101.27347639 407.79101562 95.97949219 C415.88744133 91.36497196 423.95806509 86.70904745 432 82 C441.22163754 76.60016411 450.48682369 71.28021103 459.7718811 65.99057007 C469.25042429 60.58941193 478.69065521 55.12520234 488.09960938 49.60351562 C489.46375977 48.80397461 489.46375977 48.80397461 490.85546875 47.98828125 C491.7158374 47.46016846 492.57620605 46.93205566 493.46264648 46.38793945 C496 45 496 45 498.63305664 44.21166992 C501.65676046 43.19005571 503.01502489 42.53405337 505 40 C506.68408958 33.44021573 506.16559663 26.40030033 506.0625 19.6875 C506.06557538 17.78319214 506.07269128 15.87888623 506.08398438 13.97460938 C506.1028082 9.31513104 506.0661729 4.65901517 506 0 C510.62 0 515.24 0 520 0 C520.42240822 6.79446485 520.72954836 13.58121856 520.93383789 20.38574219 C521.01900238 22.69536428 521.13479245 25.00407807 521.2824707 27.31054688 C522.44068085 45.87397038 522.44068085 45.87397038 518.47695923 50.95071411 C514.50599517 54.2920145 509.98606876 56.25399355 505.18081665 58.11730957 C502.12065406 59.35591724 499.38104684 61.01457454 496.56640625 62.73046875 C494.56553379 63.88355831 492.56422606 65.03589289 490.5625 66.1875 C488.31379049 67.4830528 486.06509292 68.77862632 483.81640625 70.07421875 C482.68734863 70.72438965 481.55829102 71.37456055 480.39501953 72.04443359 C474.9283002 75.19332054 469.46425113 78.34683264 464 81.5 C461.83334689 82.7500235 459.66668021 84.00002347 457.5 85.25 C456.4275 85.86875 455.355 86.4875 454.25 87.125 C384.375 127.4375 384.375 127.4375 314.5 167.75 C313.42596924 168.36963623 312.35193848 168.98927246 311.24536133 169.62768555 C309.09416776 170.86875254 306.94296345 172.10980093 304.79174805 173.35083008 C299.74037001 176.26498344 294.6890969 179.17931818 289.63821411 182.09432983 C287.84933082 183.12673478 286.06041283 184.15907956 284.27148438 185.19140625 C282.02662364 186.48685948 279.7818281 187.7824257 277.53710938 189.078125 C275.55163517 190.22383301 273.56369217 191.36527847 271.57275391 192.50146484 C270.00277608 193.41591957 268.44791156 194.35789039 266.92333984 195.34619141 C264.14772627 197.12049044 262.50725977 198.03790551 259.1706543 197.78857422 C255.72256933 196.93100015 253.20027169 195.68117503 250.1328125 193.89453125 C249.01261719 193.24806641 247.89242187 192.60160156 246.73828125 191.93554688 C245.53375198 191.22803852 244.32932757 190.52035164 243.125 189.8125 C241.8663564 189.08187034 240.60723464 188.35206382 239.34765625 187.62304688 C236.15765536 185.77377321 232.97398629 183.91391725 229.79260254 182.04986572 C227.13215156 180.49173099 224.46831537 178.93941466 221.8046875 177.38671875 C218.89618029 175.69045402 215.98830746 173.99315571 213.08251953 172.29223633 C205.4177854 167.80943615 197.71477152 163.39582128 190 159 C180.32518781 153.48736165 170.68717863 147.91575433 161.078125 142.2890625 C153.4142623 137.80833854 145.71321165 133.39493248 138 129 C128.32518781 123.48736165 118.68717863 117.91575433 109.078125 112.2890625 C101.4142623 107.80833854 93.71321165 103.39493248 86 99 C76.32803425 93.48898353 66.69206827 87.92034505 57.08691406 82.29345703 C51.73583178 79.16386317 46.37106064 76.06009755 40.984375 72.9921875 C40.38258423 72.64931702 39.78079346 72.30644653 39.1607666 71.95318604 C36.27325799 70.30893444 33.38402832 68.66787933 30.4921875 67.03125 C28.27355397 65.77030001 26.07109126 64.48056449 23.88378906 63.16601562 C20.92057411 61.43140236 17.89034129 60.07180836 14.73339844 58.72460938 C1.41712018 52.6185706 1.41712018 52.6185706 -1.02966309 46.37078857 C-2.48825912 38.84904907 -1.82576955 31.33603547 -1.25 23.75 C-1.14954506 21.44439719 -1.05831288 19.13837303 -0.9765625 16.83203125 C-0.7573361 11.21085995 -0.41334907 5.61010071 0 0 Z " fill="#00B9B3" transform="translate(40,402)"/>
<path d="M0 0 C0.69738281 0.57492187 1.39476562 1.14984375 2.11328125 1.7421875 C11.54221745 10.30103355 16.14463249 22.61217696 17.28540039 35.13232422 C17.39943377 38.28141875 17.41007393 41.41169239 17.375 44.5625 C17.38660156 45.60857422 17.39820313 46.65464844 17.41015625 47.73242188 C17.38338769 54.91978056 16.23604535 61.18171725 14 68 C13.56530396 69.33285034 13.56530396 69.33285034 13.12182617 70.69262695 C9.61996988 80.9467805 2.64124036 89.07122488 -7 94 C-21.22375593 100.01030991 -38.94857936 102.04644537 -53.9375 97.4375 C-66.05050296 92.31553287 -74.59874965 84.06763285 -79.859375 72.1015625 C-80.42398438 70.56628906 -80.42398438 70.56628906 -81 69 C-81.26039062 68.31276855 -81.52078125 67.62553711 -81.7890625 66.91748047 C-84.30722709 59.59231955 -84.54014778 52.57434075 -84.5 44.875 C-84.49355469 43.59125488 -84.48710938 42.30750977 -84.48046875 40.98486328 C-84.19698079 26.24162438 -81.33827272 14.13925601 -71 3 C-53.10518897 -13.97305345 -19.2224192 -15.98769875 0 0 Z " fill="#FCFDFD" transform="translate(167,269)"/>
<path d="M0 0 C7.59 0 15.18 0 23 0 C23.36351562 1.670625 23.72703125 3.34125 24.1015625 5.0625 C26.56848662 16.31867022 29.09630011 27.53544145 32 38.6875 C35.777815 53.29705814 38.35430226 68.15233293 41 83 C41.08975098 82.4237085 41.17950195 81.84741699 41.27197266 81.25366211 C43.49263203 67.22866332 46.45519583 53.60470144 50.20898438 39.91455078 C51.29244176 35.92247847 52.32428751 31.91769115 53.35742188 27.91235352 C55.76913525 18.56543001 58.29316366 9.265709 61 0 C68.26 0 75.52 0 83 0 C86.10188138 10.64509293 89.15258368 21.2334697 91.6027832 32.04589844 C92.57672687 36.30885642 93.69115922 40.49661705 94.9375 44.6875 C96.75429354 50.88766844 98.25172217 57.13865395 99.6875 63.4375 C99.90204834 64.37360107 100.11659668 65.30970215 100.33764648 66.27416992 C101.437842 71.17080856 102.37660557 76.01969502 103 81 C103.1451001 80.30890137 103.2902002 79.61780273 103.43969727 78.90576172 C107.13147166 61.37450737 111.04961326 43.91335005 115.17724609 26.47900391 C115.96271466 23.15766058 116.74197849 19.8349228 117.51953125 16.51171875 C117.97110146 14.5910864 118.42290772 12.67050953 118.875 10.75 C119.07810791 9.88060791 119.28121582 9.01121582 119.49047852 8.11547852 C120.88511164 2.22977672 120.88511164 2.22977672 122 0 C129.26 0 136.52 0 144 0 C142.24437418 7.36185504 140.48433101 14.72263589 138.72045898 22.08251953 C138.12293533 24.57833358 137.52655016 27.07442052 136.93139648 29.57080078 C134.04007444 41.69538592 131.14846622 53.80227324 127.73268127 65.79121399 C125.290075 74.3987964 123.27293052 83.1075422 121.21875 91.81420898 C120.70600415 93.98230392 120.18909037 96.14937404 119.671875 98.31640625 C119.3737793 99.57912354 119.07568359 100.84184082 118.76855469 102.14282227 C118 105 118 105 117 106 C115.07332493 106.08748207 113.14348139 106.10697334 111.21484375 106.09765625 C109.46010742 106.09282227 109.46010742 106.09282227 107.66992188 106.08789062 C106.43822266 106.07951172 105.20652344 106.07113281 103.9375 106.0625 C102.08415039 106.05573242 102.08415039 106.05573242 100.19335938 106.04882812 C97.12885883 106.03699608 94.06445279 106.02051173 91 106 C88.32000917 96.99631194 85.9973503 87.9604761 83.85668945 78.8137207 C82.65171538 73.68347324 81.38422837 68.58480662 80 63.5 C78.34748073 57.37077895 76.76745516 51.22662577 75.25 45.0625 C75.02699219 44.1859375 74.80398438 43.309375 74.57421875 42.40625 C73.29166802 37.12278628 72.77321575 32.4365224 73 27 C72.34 27 71.68 27 71 27 C70.96261719 27.63164062 70.92523438 28.26328125 70.88671875 28.9140625 C70.30724943 36.79939015 68.80451821 44.31571921 67 52 C66.78682129 52.9168457 66.57364258 53.83369141 66.35400391 54.77832031 C63.53249081 66.87606746 60.58836532 78.92165822 57.17578125 90.8671875 C55.74387792 95.90025635 54.37683909 100.95159002 53 106 C44.42 106 35.84 106 27 106 C21.866442 87.29401704 16.7989779 68.59717967 12.33813477 49.71777344 C10.64885315 42.59387182 8.8091025 35.54221979 6.78320312 28.50756836 C4.11531532 19.10415611 2.11328452 9.5399701 0 0 Z " fill="#FCFDFD" transform="translate(287,261)"/>
<path d="M0 0 C20.46 0 40.92 0 62 0 C62 6.27 62 12.54 62 19 C49.13 19 36.26 19 23 19 C23 26.59 23 34.18 23 42 C34.88 42 46.76 42 59 42 C59 48.27 59 54.54 59 61 C47.12 61 35.24 61 23 61 C23 69.91 23 78.82 23 88 C35.87 88 48.74 88 62 88 C62 94.27 62 100.54 62 107 C41.54 107 21.08 107 0 107 C0 71.69 0 36.38 0 0 Z " fill="#F9FBFB" transform="translate(450,260)"/>
<path d="M0 0 C-0.58652352 4.48993869 -1.7643538 8.22543184 -3.5625 12.375 C-4.01753906 13.43460937 -4.47257812 14.49421875 -4.94140625 15.5859375 C-5.29074219 16.38257813 -5.64007813 17.17921875 -6 18 C-9.12786442 17.43720086 -11.941958 16.71702988 -14.875 15.5 C-21.78762781 12.86110112 -31.90948227 10.9062393 -39.00390625 13.82421875 C-41.25956937 15.28632328 -42.78983972 16.57967944 -44 19 C-44.3449936 22.65693216 -44.4932347 25.12088168 -42.671875 28.3671875 C-38.67835013 32.3023275 -33.93908684 34.36388055 -28.9375 36.8125 C-4.85180636 49.01245183 -4.85180636 49.01245183 0.3125 61.0625 C2.05208067 71.02555295 1.96922584 79.41145194 -3.09375 88.3671875 C-8.15376419 95.35581365 -15.51087973 99.98695555 -23.984375 101.55078125 C-38.25366859 103.43178489 -55.58159268 104.27893821 -68 96 C-68.34057617 93.84521484 -68.34057617 93.84521484 -68.29296875 91.2109375 C-68.28330078 90.26992188 -68.27363281 89.32890625 -68.26367188 88.359375 C-68.23853516 87.37453125 -68.21339844 86.3896875 -68.1875 85.375 C-68.17396484 84.38242187 -68.16042969 83.38984375 -68.14648438 82.3671875 C-68.11105743 79.91091928 -68.06166196 77.45572715 -68 75 C-66.9378125 75.40992188 -65.875625 75.81984375 -64.78125 76.2421875 C-63.35425795 76.78669762 -61.92716941 77.33095492 -60.5 77.875 C-59.80390625 78.14441406 -59.1078125 78.41382813 -58.390625 78.69140625 C-48.56236779 82.42250389 -37.06552268 85.76296927 -26.8125 81.6875 C-23.78793871 80.14566827 -23.78793871 80.14566827 -22 77 C-21.4017872 71.55496715 -21.4017872 71.55496715 -23.32421875 66.609375 C-27.35740622 62.67628124 -32.15645835 60.57870273 -37.1875 58.125 C-49.0547994 52.31711166 -59.66303895 46.04022599 -66 34 C-68.27100318 26.96465448 -68.20890803 17.8826936 -65.375 11.0625 C-61.30307721 3.41523036 -56.07014789 -1.68503156 -48 -5 C-31.33248566 -9.91544556 -15.72227098 -6.50786458 0 0 Z " fill="#FCFDFD" transform="translate(273,266)"/>
<path d="M0 0 C6.43139414 4.17283174 10.19681438 10.748135 12.37719727 18.03051758 C13.24934157 22.23119514 13.00888061 26.53434747 13.01171875 30.80859375 C13.02396484 31.75605469 13.03621094 32.70351563 13.04882812 33.6796875 C13.07059297 44.28642365 11.83820995 54.69481377 4.33984375 62.78515625 C-3.20631638 69.43666853 -11.74603738 68.76111822 -21.17578125 68.18359375 C-27.06925627 67.28171348 -30.92808084 64.2454258 -34.53125 59.62475586 C-40.05305787 51.42811737 -40.78782794 42.75494478 -40.61328125 33.12109375 C-40.62037109 32.01443359 -40.62746094 30.90777344 -40.63476562 29.76757812 C-40.56196301 20.28643752 -39.23062106 11.43673807 -33.015625 3.9453125 C-24.19506093 -4.50070533 -10.70208907 -5.71701246 0 0 Z " fill="#3A8583" transform="translate(147.17578125,280.81640625)"/>
<path d="M0 0 C-0.12109375 1.70703125 -0.12109375 1.70703125 -1 4 C-2.44129847 5.13111946 -3.88651546 6.2579511 -5.359375 7.34765625 C-10.58693352 11.46016215 -13.23525194 15.25682056 -14.21484375 21.92578125 C-14.79746397 29.94027373 -15.32733523 38.58518678 -10.28125 45.28515625 C-7.48827939 48.32025251 -4.42796449 50.71979148 -1 53 C1.02933385 51.69841069 1.02933385 51.69841069 3 50 C3.36628677 48.00577205 3.70131344 46.00546689 4 44 C4.99 43.34 5.98 42.68 7 42 C6.49396008 44.16874252 6.00016187 45.99967627 5 48 C8.3 48 11.6 48 15 48 C14.34 47.01 13.68 46.02 13 45 C13.33 44.01 13.66 43.02 14 42 C15.5 43.1875 15.5 43.1875 17 45 C16.979375 45.825 16.95875 46.65 16.9375 47.5 C16.958125 48.325 16.97875 49.15 17 50 C18.95359268 51.66977457 18.95359268 51.66977457 21 53 C21.84304688 52.13375 22.68609375 51.2675 23.5546875 50.375 C24.66119357 49.24973959 25.76797888 48.12475372 26.875 47 C27.43058594 46.42765625 27.98617187 45.8553125 28.55859375 45.265625 C30.00134404 43.80549218 31.4974374 42.39850702 33 41 C33.66 41 34.32 41 35 41 C36.40798717 25.84193295 36.40798717 25.84193295 30.81640625 12.39453125 C28.37468122 9.88985893 25.76241565 7.68783886 23.02734375 5.51171875 C22.02832031 4.68285156 21.02929688 3.85398437 20 3 C20 2.01 20 1.02 20 0 C27.0636563 3.09472071 33.4283022 8.09499159 37 15 C39.46481345 24.07027972 40.28005875 36.09521516 35.58496094 44.54736328 C31.99252258 49.16198208 27.62364262 52.47940191 23 56 C22.67 56.99 22.34 57.98 22 59 C28.95269628 59.84632204 34.48437701 59.37375421 40.234375 55.33203125 C46.34337207 50.29625586 51.00632444 45.38603806 52.1640625 37.33203125 C52.54947619 32.20183325 52.44337237 27.12283839 52 22 C50.68 21.34 49.36 20.68 48 20 C47.8125 16.625 47.8125 16.625 48 13 C51 11 51 11 54.0625 11.25 C57 12 57 12 59 14 C59.37942388 16.95950629 59.45422179 18.40125309 57.625 20.8125 C56 22 56 22 54 22 C54.08378906 22.61294922 54.16757812 23.22589844 54.25390625 23.85742188 C56.4298481 42.27029688 56.4298481 42.27029688 51 50.08984375 C46.22494593 55.71271354 40.93313909 60.93309078 33.375 61.97265625 C29.47589416 62.15125106 25.82679025 61.73278962 22 61 C22 62.32 22 63.64 22 65 C22.95777344 64.80277344 23.91554688 64.60554688 24.90234375 64.40234375 C31.82254162 63.43016431 37.02702093 63.90166985 42.8125 68.08203125 C49.137474 73.43788256 54.95452377 78.98289164 56.18359375 87.4765625 C56.475536 91.71485024 56.32207027 95.8740798 55.83740234 100.09326172 C56.05499801 102.6449466 57.18099174 103.28583372 59 105 C59.3125 108.0625 59.3125 108.0625 59 111 C57 113 57 113 53.5 113.3125 C52.345 113.209375 51.19 113.10625 50 113 C47.84497469 109.76746204 47.53143865 108.74849077 48 105 C48.48525146 104.53505127 48.97050293 104.07010254 49.47045898 103.59106445 C52.69826676 100.23342307 52.01284591 95.04580434 52.13085938 90.62915039 C51.90313674 84.48470564 50.24895614 81.15305316 45.98608398 76.76098633 C43.49643078 74.47515722 40.95563209 72.2828799 38.28515625 70.21069336 C37.86105469 69.81116455 37.43695313 69.41163574 37 69 C37 68.34 37 67.68 37 67 C32.38 67.33 27.76 67.66 23 68 C24.74886102 69.91771657 26.49904501 71.83419683 28.25 73.75 C28.74113281 74.28882813 29.23226562 74.82765625 29.73828125 75.3828125 C30.22167969 75.91132813 30.70507812 76.43984375 31.203125 76.984375 C31.64301758 77.46616211 32.08291016 77.94794922 32.53613281 78.44433594 C34.04999586 80.10688303 34.04999586 80.10688303 36.11743164 81.82788086 C40.82815407 87.26314184 39.34607896 97.31947789 39.125 104.1328125 C38.28226646 112.41742691 34.65712179 116.67107167 28.6003418 122.03637695 C23.67828469 126 23.67828469 126 20 126 C21.30818214 122.38180002 23.43173967 120.899704 26.4453125 118.65039062 C30.58232891 115.35520895 33.49806359 112.36475675 34.62402344 107.06005859 C35.28831194 99.95981199 35.75309825 91.95926881 34 85 C32.06272855 82.67547597 32.06272855 82.67547597 30 81 C29.62875 82.7634375 29.62875 82.7634375 29.25 84.5625 C27.6949056 90.59115365 25.60892778 95.16410106 20.5 98.9375 C15.22734845 101.89844798 9.8734442 101.97101295 4 101 C-1.27740894 99.05524054 -4.75861863 95.934567 -7.2578125 90.9140625 C-8.51779158 87.66464276 -9.28223066 84.40940436 -10 81 C-12.42821551 83.07827936 -13.8389455 84.39822598 -14.67626953 87.52685547 C-16.1309485 101.88844527 -16.1309485 101.88844527 -10.8671875 114.69140625 C-7.53569421 118.17146496 -3.7977656 121.04994994 0 124 C0 124.66 0 125.32 0 126 C-4.29597139 124.35009794 -7.00517646 121.18257193 -10.125 117.9375 C-13.69553366 113.9955106 -13.69553366 113.9955106 -18 111 C-20.08635557 85.93163532 -20.08635557 85.93163532 -15.43359375 79.67578125 C-12.59934508 76.67677107 -9.35835891 74.37827559 -6 72 C-4.16526696 69.8663337 -4.16526696 69.8663337 -3 68 C-8.29169437 66.7953141 -13.18926007 66.45198958 -18.08789062 69.14990234 C-23.96216012 73.27897682 -29.79549671 78.49379979 -31.70166016 85.625 C-32.42317778 91.24375545 -32.6353543 97.52121808 -31 103 C-30.02414309 104.02357379 -29.02568617 105.02636358 -28 106 C-27.57325484 108.84496772 -27.63933009 110.36352369 -29.0625 112.875 C-32.14201133 114.66310335 -34.64333273 113.74592606 -38 113 C-39 112 -39 112 -39.0625 108.4375 C-39.041875 107.303125 -39.02125 106.16875 -39 105 C-37.02 104.01 -37.02 104.01 -35 103 C-35.08902588 102.45287354 -35.17805176 101.90574707 -35.26977539 101.34204102 C-36.50116063 92.56097143 -37.16864119 84.30798348 -31.77734375 76.8203125 C-26.77465683 71.00708779 -21.1993282 65.09106773 -13.30859375 63.953125 C-9.42085473 63.77451067 -5.80448903 64.21657225 -2 65 C-2 63.68 -2 62.36 -2 61 C-2.969375 61.185625 -3.93875 61.37125 -4.9375 61.5625 C-11.61791195 62.44207637 -16.92393833 62.10376367 -22.625 58.24609375 C-28.10948262 53.80077626 -33.07456754 49.05862603 -34.6875 41.98486328 C-35.34934757 35.27434936 -34.91148993 28.66789945 -34 22 C-34.639375 21.71898437 -35.27875 21.43796875 -35.9375 21.1484375 C-38 20 -38 20 -39 17.625 C-39 15 -39 15 -37.4375 12.625 C-35 11 -35 11 -31.875 11.0625 C-29 12 -29 12 -27 15 C-27.125 17.5625 -27.125 17.5625 -28 20 C-30.0546875 21.15234375 -30.0546875 21.15234375 -32 22 C-32.76559542 30.84588627 -33.49577188 40.19099472 -28.0859375 47.69921875 C-22.35822098 54.31500114 -16.93383076 58.74046687 -8.0625 59.4375 C-4.69376792 59.36413349 -4.69376792 59.36413349 -2 59 C-3.94371949 55.13984129 -6.06617915 53.17413282 -9.53588867 50.66674805 C-14.8709004 46.49416164 -17.26211222 42.47528542 -18.3125 35.73828125 C-19.06553558 26.62174407 -19.4586061 17.47492204 -13.68359375 9.9140625 C-4.57066761 0 -4.57066761 0 0 0 Z " fill="#ECF9F9" transform="translate(290,419)"/>
<path d="M0 0 C3.77254331 2.80522451 6.17184458 5.2036557 6.95507812 9.94702148 C6.95958984 11.09759033 6.96410156 12.24815918 6.96875 13.43359375 C6.97648437 15.33141602 6.97648437 15.33141602 6.984375 17.26757812 C6.96890625 18.58177734 6.9534375 19.89597656 6.9375 21.25 C6.95296875 22.56033203 6.9684375 23.87066406 6.984375 25.22070312 C6.97921875 26.48720703 6.9740625 27.75371094 6.96875 29.05859375 C6.96423828 30.21029053 6.95972656 31.3619873 6.95507812 32.54858398 C6.32445374 36.52538466 4.94193207 38.69072655 2.4375 41.8125 C-3.05552644 45.10831586 -8.23237328 45.56708464 -14.5625 44.8125 C-18.65684117 43.42196904 -21.75203264 41.37586779 -24.49975586 37.98876953 C-26.98257918 32.9044858 -26.26934234 26.83958579 -26.1875 21.3125 C-26.20683594 20.00667969 -26.22617188 18.70085937 -26.24609375 17.35546875 C-26.19178748 6.72230201 -26.19178748 6.72230201 -23.2734375 3.03125 C-16.49337073 -2.51785364 -8.29044972 -2.76348324 0 0 Z " fill="#F8FDFD" transform="translate(191.5625,120.1875)"/>
<path d="M0 0 C3.96 0 7.92 0 12 0 C12.98293267 2.24842091 13.96144466 4.49859547 14.9375 6.75 C15.21529297 7.38421875 15.49308594 8.0184375 15.77929688 8.671875 C17.12679669 11.78898301 18.17302694 14.69210776 19 18 C19.33 12.39 19.66 6.78 20 1 C23.63 1 27.26 1 31 1 C31 15.52 31 30.04 31 45 C27.04 45 23.08 45 19 45 C17.02 39.72 15.04 34.44 13 29 C12.67 34.28 12.34 39.56 12 45 C8.04 45 4.08 45 0 45 C0 30.15 0 15.3 0 0 Z " fill="#F7FCFC" transform="translate(284,119)"/>
<path d="M0 0 C4.95 0 9.9 0 15 0 C15.99 8.58 16.98 17.16 18 26 C18.61770803 18.19200551 18.61770803 18.19200551 19.22631836 10.38330078 C19.34438843 8.92899658 19.34438843 8.92899658 19.46484375 7.4453125 C19.543396 6.45031738 19.62194824 5.45532227 19.70288086 4.43017578 C20 2 20 2 21 0 C25.62 0 30.24 0 35 0 C34.27214548 9.47884111 32.89559928 18.80066878 31.4375 28.1875 C31.20086528 29.72716645 30.96453498 31.26687972 30.72851562 32.80664062 C30.15640506 36.53840746 29.57808155 40.26913419 29 44 C21.74 44 14.48 44 7 44 C6.16025109 39.34157637 5.3229295 34.68283981 4.49145508 30.02294922 C4.20864381 28.44197465 3.92449481 26.86123872 3.63891602 25.28076172 C2.11940471 16.86623501 0.67550964 8.53365343 0 0 Z " fill="#FAFDFD" transform="translate(372,120)"/>
<path d="M0 0 C3.38031589 1.18767855 3.93216817 1.89825225 6 5 C6.19932094 9.18573976 6.33808088 12.98575735 5 17 C5.763125 17.53625 6.52625 18.0725 7.3125 18.625 C11.4738606 22.30248146 12.81624998 25.3724998 13.4375 30.875 C13.22361013 35.52710463 11.77407672 39.26820631 9 43 C4.06450315 47.02897702 -0.0917705 47.65214157 -6.4140625 47.375 C-10.25243922 46.81837739 -12.226226 45.70612097 -15 43 C-18.33665061 38.17806918 -19.75347131 33.92013175 -19 28 C-17.32851476 22.80959847 -15.52440778 20.05703228 -11 17 C-11.2475 16.2575 -11.2475 16.2575 -11.5 15.5 C-12.21106611 11.94466943 -12.61656683 8.57892242 -12 5 C-8.58995171 0.03992976 -5.8809843 -0.74848891 0 0 Z " fill="#03BBB5" transform="translate(303,470)"/>
<path d="M0 0 C4.95906684 2.42985242 4.95906684 2.42985242 6.33203125 5.17578125 C6.46618597 7.84814335 6.37521666 10.49828613 6.33203125 13.17578125 C2.04203125 13.17578125 -2.24796875 13.17578125 -6.66796875 13.17578125 C-6.99796875 11.19578125 -7.32796875 9.21578125 -7.66796875 7.17578125 C-8.32796875 7.17578125 -8.98796875 7.17578125 -9.66796875 7.17578125 C-10.19061796 10.00364891 -10.19061796 10.00364891 -9.66796875 13.17578125 C-7.53799722 14.87791168 -5.79978122 16.01677357 -3.41796875 17.23828125 C1.0529284 19.62112204 4.60539335 21.76406787 7.33203125 26.17578125 C8.20391768 30.95399347 7.88870078 35.60400847 6.26953125 40.17578125 C2.43322056 44.1358439 -1.75087728 45.33807727 -7.10546875 45.55078125 C-12.98195239 45.32013428 -17.6671231 43.87650005 -22.16796875 40.05078125 C-24.32335628 35.91962182 -23.94414014 32.80165209 -23.66796875 28.17578125 C-19.37796875 28.17578125 -15.08796875 28.17578125 -10.66796875 28.17578125 C-10.33796875 30.81578125 -10.00796875 33.45578125 -9.66796875 36.17578125 C-8.67796875 36.17578125 -7.68796875 36.17578125 -6.66796875 36.17578125 C-6.66796875 33.53578125 -6.66796875 30.89578125 -6.66796875 28.17578125 C-7.38597656 27.90507812 -8.10398437 27.634375 -8.84375 27.35546875 C-11.66028364 26.17899135 -14.22077061 24.8393493 -16.85546875 23.30078125 C-17.71527344 22.80835938 -18.57507813 22.3159375 -19.4609375 21.80859375 C-21.88278236 20.0168572 -22.70939725 19.00511325 -23.66796875 16.17578125 C-24.19518306 12.45198336 -24.22484941 8.89750841 -23.66796875 5.17578125 C-17.96604321 -2.32675235 -8.72090221 -2.69415866 0 0 Z " fill="#F9FDFD" transform="translate(343.66796875,119.82421875)"/>
<path d="M0 0 C5.61 0 11.22 0 17 0 C17 7.59 17 15.18 17 23 C17.99 23 18.98 23 20 23 C20 15.41 20 7.82 20 0 C25.61 0 31.22 0 37 0 C37 9.57 37 19.14 37 29 C28.0625 28.9375 28.0625 28.9375 25.30493164 28.90991211 C20.46249173 28.89376543 15.79431247 29.16405799 10.99951172 29.85668945 C7.58822386 30.10118591 5.15859127 29.28922093 2 28 C-0.29755922 24.55366118 -0.23643976 23.28931609 -0.1953125 19.23828125 C-0.18886719 18.12001953 -0.18242187 17.00175781 -0.17578125 15.84960938 C-0.15902344 14.68236328 -0.14226562 13.51511719 -0.125 12.3125 C-0.11597656 11.13365234 -0.10695313 9.95480469 -0.09765625 8.74023438 C-0.07406517 5.82673658 -0.03819386 2.91334296 0 0 Z " fill="#45CCC8" transform="translate(285,175)"/>
<path d="M0 0 C2.0625 1.625 2.0625 1.625 3 4 C3 6.97 3 9.94 3 13 C-3.27 13 -9.54 13 -16 13 C-16 15.64 -16 18.28 -16 21 C-15.01 20.67 -14.02 20.34 -13 20 C-12.67 18.02 -12.34 16.04 -12 14 C-7.05 14 -2.1 14 3 14 C3.23798791 16.85585493 3.4184873 19.19935422 3 22 C-0.98705482 26.59115404 -6.00757751 27.76505774 -11.8359375 28.22265625 C-19.21688219 28.43646195 -25.04992511 27.86186106 -31.18359375 23.41796875 C-33.77620917 19.96672371 -33.62269513 16.70888185 -33.5625 12.5625 C-33.58634766 11.81162109 -33.61019531 11.06074219 -33.63476562 10.28710938 C-33.62366837 6.08125058 -33.35775033 4.45076541 -30.65625 1.046875 C-22.38274065 -5.32859397 -9.06873099 -4.57414063 0 0 Z " fill="#29C5C0" transform="translate(238,177)"/>
<path d="M0 0 C0.1875 3.625 0.1875 3.625 0 7 C-3.3 7.33 -6.6 7.66 -10 8 C-9.28972656 8.27714844 -8.57945312 8.55429688 -7.84765625 8.83984375 C-6.92855469 9.20207031 -6.00945312 9.56429687 -5.0625 9.9375 C-4.14597656 10.29714844 -3.22945312 10.65679687 -2.28515625 11.02734375 C0 12 0 12 1 13 C1.49244361 16.07309745 1.56883504 18.9358037 1 22 C-4.75325488 27.351865 -11.42483197 27.287378 -18.9140625 27.22265625 C-23.19174555 26.9140133 -27.2108886 26.06447101 -31 24 C-33.29013653 20.5647952 -33.17842973 19.014669 -33 15 C-30.03 14.67 -27.06 14.34 -24 14 C-25.27875 13.401875 -26.5575 12.80375 -27.875 12.1875 C-31.09630198 10.68076198 -31.93814793 10.0927781 -34 7 C-33.9375 3.5 -33.9375 3.5 -33 0 C-24.70244295 -6.91463088 -8.6177941 -5.74519607 0 0 Z " fill="#13BFB9" transform="translate(200,178)"/>
<path d="M0 0 C7.59 0 15.18 0 23 0 C23 2.64 23 5.28 23 8 C20.03 8 17.06 8 14 8 C14 10.97 14 13.94 14 17 C16.97 17 19.94 17 23 17 C23 19.64 23 22.28 23 25 C20.03 25 17.06 25 14 25 C14 28.3 14 31.6 14 35 C17.63 35 21.26 35 25 35 C25 37.97 25 40.94 25 44 C16.75 44 8.5 44 0 44 C0 29.48 0 14.96 0 0 Z " fill="#F4FCFB" transform="translate(256,120)"/>
<path d="M0 0 C7.59 0 15.18 0 23 0 C23 2.64 23 5.28 23 8 C20.03 8 17.06 8 14 8 C14 10.97 14 13.94 14 17 C16.64 17 19.28 17 22 17 C22 19.64 22 22.28 22 25 C19.36 25 16.72 25 14 25 C14 28.3 14 31.6 14 35 C17.3 35 20.6 35 24 35 C24 37.97 24 40.94 24 44 C16.08 44 8.16 44 0 44 C0 29.48 0 14.96 0 0 Z " fill="#FAFDFD" transform="translate(410,120)"/>
<path d="M0 0 C7.92 0 15.84 0 24 0 C24 3.3 24 6.6 24 10 C20.7 10 17.4 10 14 10 C14 12.64 14 15.28 14 18 C16.64 18 19.28 18 22 18 C22 20.64 22 23.28 22 26 C19.36 26 16.72 26 14 26 C14 32.27 14 38.54 14 45 C9.38 45 4.76 45 0 45 C0 30.15 0 15.3 0 0 Z " fill="#F3FBFB" transform="translate(203,119)"/>
<path d="M0 0 C7.59 0 15.18 0 23 0 C23 2.64 23 5.28 23 8 C20.03 8 17.06 8 14 8 C14 10.97 14 13.94 14 17 C16.64 17 19.28 17 22 17 C22 19.64 22 22.28 22 25 C19.36 25 16.72 25 14 25 C14 31.27 14 37.54 14 44 C9.38 44 4.76 44 0 44 C0 29.48 0 14.96 0 0 Z " fill="#FBFEFD" transform="translate(230,120)"/>
<path d="M0 0 C4.62 0 9.24 0 14 0 C14 14.85 14 29.7 14 45 C9.38 45 4.76 45 0 45 C0 30.15 0 15.3 0 0 Z " fill="#F2FBFB" transform="translate(355,119)"/>
<path d="M0 0 C0.99 0 1.98 0 3 0 C3 3.63 3 7.26 3 11 C2.05125 10.95875 1.1025 10.9175 0.125 10.875 C-3.10244856 10.65026182 -3.10244856 10.65026182 -5 13 C-5.3074891 15.90664221 -5.5110662 18.71185845 -5.625 21.625 C-5.74875 24.38875 -5.8725 27.1525 -6 30 C-11.61 30 -17.22 30 -23 30 C-23 20.43 -23 10.86 -23 1 C-15.33333333 1 -7.66666667 1 0 1 C0 0.67 0 0.34 0 0 Z " fill="#0CBDB7" transform="translate(350,174)"/>
<path d="M0 0 C4.62 0 9.24 0 14 0 C14 9.57 14 19.14 14 29 C9.38 29 4.76 29 0 29 C0 19.43 0 9.86 0 0 Z " fill="#2DC6C1" transform="translate(355,175)"/>
<path d="M0 0 C4.62 0 9.24 0 14 0 C14 8.91 14 17.82 14 27 C9.38 27 4.76 27 0 27 C-0.78222915 23.08885426 -1.08139352 20.54647696 -0.87890625 16.69921875 C-0.83056641 15.72275391 -0.78222656 14.74628906 -0.73242188 13.74023438 C-0.67634766 12.73283203 -0.62027344 11.72542969 -0.5625 10.6875 C-0.51029297 9.66076172 -0.45808594 8.63402344 -0.40429688 7.57617188 C-0.27507602 5.05049146 -0.13827973 2.52520065 0 0 Z " fill="#00BAB4" transform="translate(307,176)"/>
<path d="M0 0 C2.9375 0.75 2.9375 0.75 4.9375 2.75 C5.31692388 5.70950629 5.39172179 7.15125309 3.5625 9.5625 C1.9375 10.75 1.9375 10.75 -0.0625 10.75 C0.02128906 11.36294922 0.10507812 11.97589844 0.19140625 12.60742188 C2.3673481 31.02029688 2.3673481 31.02029688 -3.0625 38.83984375 C-7.83755407 44.46271354 -13.12936091 49.68309078 -20.6875 50.72265625 C-24.58660584 50.90125106 -28.23570975 50.48278962 -32.0625 49.75 C-32.0625 50.41 -32.0625 51.07 -32.0625 51.75 C-33.5475 52.245 -33.5475 52.245 -35.0625 52.75 C-34.5675 49.78 -34.5675 49.78 -34.0625 46.75 C-33.08152344 46.92402344 -32.10054688 47.09804688 -31.08984375 47.27734375 C-24.59066761 48.07281372 -19.2447201 47.93109493 -13.6953125 44.1484375 C-7.57165552 39.13110105 -3.06263078 34.10254303 -1.90625 26.078125 C-1.51457433 20.94825576 -1.61912522 15.8728662 -2.0625 10.75 C-3.3825 10.09 -4.7025 9.43 -6.0625 8.75 C-6.25 5.375 -6.25 5.375 -6.0625 1.75 C-3.0625 -0.25 -3.0625 -0.25 0 0 Z " fill="#F4FCFB" transform="translate(344.0625,430.25)"/>
<path d="M0 0 C2 1.8125 2 1.8125 3 4 C3.03984265 5.9996031 3.04364581 8.0004763 3 10 C0.52076199 10.02685095 -1.9581884 10.04676547 -4.4375 10.0625 C-5.14455078 10.07087891 -5.85160156 10.07925781 -6.58007812 10.08789062 C-8.38693559 10.09653588 -10.19387603 10.05220011 -12 10 C-13 9 -13 9 -13.0625 5.9375 C-13.041875 4.968125 -13.02125 3.99875 -13 3 C-13.99 3.495 -13.99 3.495 -15 4 C-15.33 9.61 -15.66 15.22 -16 21 C-16.33 21 -16.66 21 -17 21 C-17 15.06 -17 9.12 -17 3 C-15.35 2.67 -13.7 2.34 -12 2 C-11 3 -11 3 -11 8 C-6.71 8 -2.42 8 2 8 C0.29141161 3.60218965 0.29141161 3.60218965 -3.2956543 0.81689453 C-6.05799439 -0.01751821 -8.20658087 -0.2305941 -11.08203125 -0.1953125 C-12.01337891 -0.18886719 -12.94472656 -0.18242187 -13.90429688 -0.17578125 C-14.86400391 -0.15902344 -15.82371094 -0.14226562 -16.8125 -0.125 C-17.79154297 -0.11597656 -18.77058594 -0.10695312 -19.77929688 -0.09765625 C-22.18645061 -0.07417182 -24.59309743 -0.0413284 -27 0 C-27.309375 0.639375 -27.61875 1.27875 -27.9375 1.9375 C-29 4 -29 4 -30 5 C-30.23429886 7.62474034 -30.37078338 10.18294482 -30.4375 12.8125 C-30.48326172 13.53759766 -30.52902344 14.26269531 -30.57617188 15.00976562 C-30.6913862 17.44390648 -30.6913862 17.44390648 -30 21 C-26.86208789 24.13300145 -24.23727689 25.19603322 -19.90625 25.42578125 C-18.437114 25.40869827 -16.96808797 25.37055269 -15.5 25.3125 C-14.76652344 25.30283203 -14.03304688 25.29316406 -13.27734375 25.28320312 C-9.09918444 25.19724815 -5.11258305 24.80039195 -1 24 C-2 26 -2 26 -4.8125 27.125 C-13.09303661 29.25476765 -21.3496352 28.75563363 -29 25 C-31.60183659 22.86563287 -32.51439586 21.3231705 -33 18 C-33.11751055 15.83561973 -33.17507149 13.66753229 -33.1875 11.5 C-33.20167969 10.3759375 -33.21585938 9.251875 -33.23046875 8.09375 C-33.00447286 5.06004251 -32.73647982 3.46324933 -31 1 C-22.47281538 -5.45515845 -9.08741113 -4.80089645 0 0 Z " fill="#91E1DE" transform="translate(278,177)"/>
<path d="M0 0 C5.61 0 11.22 0 17 0 C17 1.32 17 2.64 17 4 C18.32 4 19.64 4 21 4 C21 5.98 21 7.96 21 10 C19.68 10 18.36 10 17 10 C17 15.61 17 21.22 17 27 C18.65 27 20.3 27 22 27 C22 28.98 22 30.96 22 33 C19.2697611 33.1083667 16.54385457 33.18746694 13.8125 33.25 C12.65911133 33.30027344 12.65911133 33.30027344 11.48242188 33.3515625 C7.76452268 33.4153891 5.38540544 33.17879634 1.96875 31.59375 C-1.02631809 27.64786664 -0.54326449 24.05700192 -0.3125 19.25 C-0.28994141 18.36183594 -0.26738281 17.47367188 -0.24414062 16.55859375 C-0.18532552 14.37067188 -0.10321268 12.18620329 0 10 C-0.99 10 -1.98 10 -3 10 C-3 8.02 -3 6.04 -3 4 C-2.01 4 -1.02 4 0 4 C0 2.68 0 1.36 0 0 Z M2 1 C1.67 2.32 1.34 3.64 1 5 C0.01 5.33 -0.98 5.66 -2 6 C-2 6.99 -2 7.98 -2 9 C-0.68 9 0.64 9 2 9 C2 15.93 2 22.86 2 30 C6.82241015 31.92896406 9.26253299 32.21939191 14.3125 32.125 C15.56675781 32.10695313 16.82101562 32.08890625 18.11328125 32.0703125 C19.06589844 32.04710937 20.01851563 32.02390625 21 32 C21 31.01 21 30.02 21 29 C19.68 28.67 18.36 28.34 17 28 C16.505 18.595 16.505 18.595 16 9 C17.32 9 18.64 9 20 9 C20 8.01 20 7.02 20 6 C18.68 6 17.36 6 16 6 C16 4.35 16 2.7 16 1 C11.38 1 6.76 1 2 1 Z " fill="#D9F4F3" transform="translate(374,171)"/>
<path d="M0 0 C0.66 0.33 1.32 0.66 2 1 C1.67 1.33 1.34 1.66 1 2 C0.95907063 4.33297433 0.95758277 6.66705225 1 9 C5.99278308 11.63255835 10.81836197 13.72982297 16.21484375 15.38671875 C18 16 18 16 19 17 C19.04063832 18.66617115 19.042721 20.33388095 19 22 C16.625 22.625 16.625 22.625 14 23 C13.34 22.34 12.68 21.68 12 21 C12 19.68 12 18.36 12 17 C8.04 17 4.08 17 0 17 C0.54839062 19.98220128 0.54839062 19.98220128 2 23 C7.38890991 25.65946204 13.01527089 25.22822016 18.875 25.125 C19.84953125 25.11597656 20.8240625 25.10695312 21.828125 25.09765625 C24.21900728 25.07421623 26.60937261 25.04140442 29 25 C25.51889068 28.48110932 20.98420011 28.17485397 16.25 28.25 C10.84912582 28.20332578 5.80533217 27.61815183 1 25 C-1.29013653 21.5647952 -1.17842973 20.014669 -1 16 C3.455 15.505 3.455 15.505 8 15 C6.72125 14.401875 5.4425 13.80375 4.125 13.1875 C0.90369802 11.68076198 0.06185207 11.0927781 -2 8 C-1.43396226 1.43396226 -1.43396226 1.43396226 0 0 Z " fill="#AFE9E7" transform="translate(168,177)"/>
<path d="M0 0 C0.33 0 0.66 0 1 0 C1.01458252 0.59014893 1.02916504 1.18029785 1.04418945 1.78833008 C1.11868844 4.46371229 1.21533995 7.13784892 1.3125 9.8125 C1.33505859 10.74126953 1.35761719 11.67003906 1.38085938 12.62695312 C1.41630859 13.51962891 1.45175781 14.41230469 1.48828125 15.33203125 C1.51446533 16.15421143 1.54064941 16.9763916 1.56762695 17.82348633 C2.0904002 20.45506369 3.05988137 21.22502488 5 23 C5.42674516 25.84496772 5.36066991 27.36352369 3.9375 29.875 C0.85798867 31.66310335 -1.64333273 30.74592606 -5 30 C-6 29 -6 29 -6.3125 25.625 C-6 22 -6 22 -4.125 20.0625 C-2 19 -2 19 0 19 C0 12.73 0 6.46 0 0 Z " fill="#DAF5F4" transform="translate(257,502)"/>
<path d="M0 0 C0.99 0.33 1.98 0.66 3 1 C3 10.9 3 20.8 3 31 C1.68 30.67 0.36 30.34 -1 30 C-1.02465746 25.8882744 -1.04283959 21.77657722 -1.05493164 17.66479492 C-1.0599708 16.26504772 -1.06680216 14.8653058 -1.07543945 13.46557617 C-1.0875232 11.45754223 -1.09269807 9.44947043 -1.09765625 7.44140625 C-1.10289307 6.23170166 -1.10812988 5.02199707 -1.11352539 3.77563477 C-1 1 -1 1 0 0 Z " fill="#04BBB5" transform="translate(181,126)"/>
<path d="M0 0 C2.9375 0.75 2.9375 0.75 4.9375 2.75 C5.375 5.125 5.375 5.125 4.9375 7.75 C2.4375 10.0625 2.4375 10.0625 -0.0625 11.75 C-4.9375 9.875 -4.9375 9.875 -6.0625 8.75 C-6.3125 5.3125 -6.3125 5.3125 -6.0625 1.75 C-3.0625 -0.25 -3.0625 -0.25 0 0 Z " fill="#E9F9F8" transform="translate(344.0625,430.25)"/>
<path d="M0 0 C0.33 0 0.66 0 1 0 C0.95697754 0.71430176 0.91395508 1.42860352 0.86962891 2.16455078 C-0.33435705 17.29862438 -0.33435705 17.29862438 5.18359375 30.7734375 C8.50381956 34.21691995 12.22416331 37.07677159 16 40 C16 40.66 16 41.32 16 42 C9.08140206 38.98595733 2.37308456 33.85454132 -1 27 C-2.6441592 18.58838744 -2.18043528 9.46669459 -1 1 C-0.67 0.67 -0.34 0.34 0 0 Z " fill="#FAFDFD" transform="translate(274,503)"/>
<path d="M0 0 C3.5 0.25 3.5 0.25 5.5 2.25 C5.75 5.25 5.75 5.25 5.5 8.25 C3.5 10.25 3.5 10.25 0 10.5625 C-1.7325 10.4078125 -1.7325 10.4078125 -3.5 10.25 C-5.64915785 7.02626323 -5.88286803 5.98296326 -5.5 2.25 C-3.5 0.25 -3.5 0.25 0 0 Z " fill="#F7FCFC" transform="translate(343.5,521.75)"/>
<path d="M0 0 C7.26 0 14.52 0 22 0 C17 4 17 4 15 5 C15 3.68 15 2.36 15 1 C10.38 1 5.76 1 1 1 C1 9.91 1 18.82 1 28 C5.95 28 10.9 28 16 28 C16 22.39 16 16.78 16 11 C17.32 10.67 18.64 10.34 20 10 C19.34 10.66 18.68 11.32 18 12 C17.6925109 14.90664221 17.4889338 17.71185845 17.375 20.625 C17.25125 23.38875 17.1275 26.1525 17 29 C11.39 29 5.78 29 0 29 C0 19.43 0 9.86 0 0 Z " fill="#DAF5F4" transform="translate(327,175)"/>
<path d="M0 0 C-0.125 1.70703125 -0.125 1.70703125 -1 4 C-2.42349917 5.1317646 -3.85090371 6.25929618 -5.30566406 7.35058594 C-9.50409831 10.66335624 -12.48130534 13.6463656 -13.66210938 19.00439453 C-14.43591745 26.32243856 -14.34416778 33.65661826 -14 41 C-14.33 41 -14.66 41 -15 41 C-15.16768422 37.06254264 -15.3339732 33.12502757 -15.5 29.1875 C-15.54769531 28.06794922 -15.59539062 26.94839844 -15.64453125 25.79492188 C-15.68964844 24.72177734 -15.73476563 23.64863281 -15.78125 22.54296875 C-15.82314453 21.55321045 -15.86503906 20.56345215 -15.90820312 19.54370117 C-16.10342279 14.13414343 -16.10342279 14.13414343 -14.74658203 12.37426758 C-14.17278809 11.80345459 -13.59899414 11.2326416 -13.0078125 10.64453125 C-12.38519531 10.02255859 -11.76257813 9.40058594 -11.12109375 8.75976562 C-10.46238281 8.11716797 -9.80367188 7.47457031 -9.125 6.8125 C-8.47402344 6.15830078 -7.82304687 5.50410156 -7.15234375 4.83007812 C-2.26686327 0 -2.26686327 0 0 0 Z " fill="#CFF2F1" transform="translate(290,419)"/>
<path d="M0 0 C0.66 0 1.32 0 2 0 C2 2.31 2 4.62 2 7 C-1.3 7.33 -4.6 7.66 -8 8 C-6.02 8.66 -4.04 9.32 -2 10 C-5.69311869 11.35092703 -8.03435338 10.65286971 -11.6875 9.375 C-12.66074219 9.05273438 -13.63398438 8.73046875 -14.63671875 8.3984375 C-17 7 -17 7 -17.83203125 4.3515625 C-17.88746094 3.57554687 -17.94289062 2.79953125 -18 2 C-16.02 1.67 -14.04 1.34 -12 1 C-11.67 2.32 -11.34 3.64 -11 5 C-7.04 5 -3.08 5 1 5 C0.67 3.35 0.34 1.7 0 0 Z " fill="#89DFDC" transform="translate(198,178)"/>
<path d="M0 0 C4.19769372 0.24692316 6.52655584 0.6474352 9.9375 3.1875 C12.37269126 6.50821535 12.18259779 7.99944852 12 12 C9.52076199 12.02685095 7.0418116 12.04676547 4.5625 12.0625 C3.85544922 12.07087891 3.14839844 12.07925781 2.41992188 12.08789062 C0.61306441 12.09653588 -1.19387603 12.05220011 -3 12 C-4 11 -4 11 -4.0625 7.9375 C-4.041875 6.968125 -4.02125 5.99875 -4 5 C-4.99 5.495 -4.99 5.495 -6 6 C-6.33 11.61 -6.66 17.22 -7 23 C-7.33 23 -7.66 23 -8 23 C-8 17.06 -8 11.12 -8 5 C-6.35 4.67 -4.7 4.34 -3 4 C-2 5 -2 5 -2 10 C2.29 10 6.58 10 11 10 C9.88340838 6.85958606 9.04378688 4.56203909 6.01953125 2.93359375 C4.04067232 2.20859588 2.02132259 1.59645585 0 1 C0 0.67 0 0.34 0 0 Z " fill="#ADE8E7" transform="translate(269,175)"/>
<path d="M0 0 C4.62 0 9.24 0 14 0 C14 1.98 14 3.96 14 6 C9.38 6 4.76 6 0 6 C0 4.02 0 2.04 0 0 Z " fill="#ADE9E7" transform="translate(355,168)"/>
<path d="M0 0 C3 0.25 3 0.25 5 2.25 C4.625 5.875 4.625 5.875 4 9.25 C-1.44736842 10.58157895 -1.44736842 10.58157895 -3.875 9.125 C-5.3568671 6.65522151 -5.3633156 5.08386167 -5 2.25 C-3 0.25 -3 0.25 0 0 Z " fill="#B9ECEA" transform="translate(444,119.75)"/>
<path d="M0 0 C0.66 0.33 1.32 0.66 2 1 C1.67 2.65 1.34 4.3 1 6 C0.01 6 -0.98 6 -2 6 C-2 6.99 -2 7.98 -2 9 C-0.68 9 0.64 9 2 9 C2 15.93 2 22.86 2 30 C1.34 29.67 0.68 29.34 0 29 C0 22.73 0 16.46 0 10 C-0.99 10 -1.98 10 -3 10 C-3 8.02 -3 6.04 -3 4 C-2.01 4 -1.02 4 0 4 C0 2.68 0 1.36 0 0 Z " fill="#96E2E0" transform="translate(374,171)"/>
<path d="M0 0 C0.33 0 0.66 0 1 0 C1 4.62 1 9.24 1 14 C0.67 14 0.34 14 0 14 C0 12.02 0 10.04 0 8 C-4.95 8 -9.9 8 -15 8 C-15 9.98 -15 11.96 -15 14 C-16.32 14.33 -17.64 14.66 -19 15 C-19 12.36 -19 9.72 -19 7 C-12.73 7 -6.46 7 0 7 C0 4.69 0 2.38 0 0 Z " fill="#5FD3CF" transform="translate(241,183)"/>
<path d="M0 0 C1.4540625 0.0309375 1.4540625 0.0309375 2.9375 0.0625 C2.9375 3.0625 2.9375 3.0625 2.3125 5 C1.83100865 7.64820244 2.56903705 8.80856103 3.9375 11.0625 C1.2975 11.0625 -1.3425 11.0625 -4.0625 11.0625 C-3.69125 10.155 -3.32 9.2475 -2.9375 8.3125 C-1.75890701 5.18152985 -1.75890701 5.18152985 -2.9375 2.6875 C-3.30875 2.15125 -3.68 1.615 -4.0625 1.0625 C-3.0625 0.0625 -3.0625 0.0625 0 0 Z " fill="#DFF6F5" transform="translate(300.0625,499.9375)"/>
<path d="M0 0 C4.95 0 9.9 0 15 0 C15 7 15 7 13 10 C12.34 9.67 11.68 9.34 11 9 C11.99 6.69 12.98 4.38 14 2 C10.04 2 6.08 2 2 2 C1.67 3.98 1.34 5.96 1 8 C-0.32 8.33 -1.64 8.66 -3 9 C-3.33 8.34 -3.66 7.68 -4 7 C-2.68 7 -1.36 7 0 7 C0 4.69 0 2.38 0 0 Z " fill="#96E2E0" transform="translate(266,191)"/>
<path d="M0 0 C1.35439668 2.70879335 1.06501451 5.00933268 1 8 C-0.9375 8.5625 -0.9375 8.5625 -3 9 C-4 8 -4 8 -4.09765625 6.15234375 C-4.04882812 3.07617188 -4.04882812 3.07617188 -4 0 C-8.29 0 -12.58 0 -17 0 C-17 -0.33 -17 -0.66 -17 -1 C-14.91814549 -1.22262606 -12.83439574 -1.42757926 -10.75 -1.625 C-9.58984375 -1.74101562 -8.4296875 -1.85703125 -7.234375 -1.9765625 C-4.04425092 -1.99967934 -2.57886818 -1.80520773 0 0 Z " fill="#10BEB8" transform="translate(337,148)"/>
<path d="M0 0 C0.33 0.99 0.66 1.98 1 3 C-1.25858133 5.34546698 -3.53376648 7.67412027 -5.8125 10 C-6.45509766 10.66773438 -7.09769531 11.33546875 -7.75976562 12.0234375 C-8.69272461 12.97089844 -8.69272461 12.97089844 -9.64453125 13.9375 C-10.21534424 14.52402344 -10.78615723 15.11054687 -11.37426758 15.71484375 C-13 17 -13 17 -16 17 C-16 16.34 -16 15.68 -16 15 C-14.53125 13.5546875 -14.53125 13.5546875 -12.5 11.875 C-8.09475988 8.1384124 -4.03400765 4.13056634 0 0 Z " fill="#DBF5F4" transform="translate(326,528)"/>
<path d="M0 0 C2.475 0.99 2.475 0.99 5 2 C5 3.65 5 5.3 5 7 C2.625 7.625 2.625 7.625 0 8 C-0.66 7.34 -1.32 6.68 -2 6 C-1.44444444 1.44444444 -1.44444444 1.44444444 0 0 Z " fill="#6BD6D3" transform="translate(182,192)"/>
<path d="M0 0 C0.99 0.33 1.98 0.66 3 1 C2.01 2.485 2.01 2.485 1 4 C1.07606836 6.13803054 1.07606836 6.13803054 2 8 C2.99 8.33 3.98 8.66 5 9 C5.99 8.34 6.98 7.68 8 7 C7.34 8.32 6.68 9.64 6 11 C-0.875 10.125 -0.875 10.125 -2 9 C-2.1875 5.5625 -2.1875 5.5625 -2 2 C-1.34 1.34 -0.68 0.68 0 0 Z " fill="#EDFAFA" transform="translate(253,522)"/>
<path d="M0 0 C1.67542976 0.28604898 3.34385343 0.61781233 5 1 C5 2.98 5 4.96 5 7 C3.02 7 1.04 7 -1 7 C-1.04254356 5.00045254 -1.04080783 2.99958364 -1 1 C-0.67 0.67 -0.34 0.34 0 0 Z " fill="#7CDBD8" transform="translate(221,179)"/>
<path d="M0 0 C3.96 0 7.92 0 12 0 C12 0.99 12 1.98 12 3 C8.04 3 4.08 3 0 3 C0 2.01 0 1.02 0 0 Z " fill="#01BAB4" transform="translate(356,170)"/>
<path d="M0 0 C6.93 0 13.86 0 21 0 C16 4 16 4 14 5 C14 3.68 14 2.36 14 1 C9.38 1 4.76 1 0 1 C0 0.67 0 0.34 0 0 Z " fill="#BEEDEB" transform="translate(328,175)"/>
<path d="M0 0 C1.67542976 0.28604898 3.34385343 0.61781233 5 1 C4.67 2.32 4.34 3.64 4 5 C2.68 5 1.36 5 0 5 C-0.5625 3.0625 -0.5625 3.0625 -1 1 C-0.67 0.67 -0.34 0.34 0 0 Z " fill="#18C0BB" transform="translate(341,433)"/>
<path d="M0 0 C1.65 0.33 3.3 0.66 5 1 C4.67 2.32 4.34 3.64 4 5 C2.35 4.67 0.7 4.34 -1 4 C-0.67 2.68 -0.34 1.36 0 0 Z " fill="#13BFB9" transform="translate(254,525)"/>
<path d="M0 0 C0.66 1.32 1.32 2.64 2 4 C2.66 4 3.32 4 4 4 C4.66 2.68 5.32 1.36 6 0 C6.6875 1.8125 6.6875 1.8125 7 4 C5.8125 5.8125 5.8125 5.8125 4 7 C1.8125 6.6875 1.8125 6.6875 0 6 C-1.125 2.25 -1.125 2.25 0 0 Z " fill="#32C7C2" transform="translate(441,122)"/>
<path d="M0 0 C0.99 0 1.98 0 3 0 C3 2.31 3 4.62 3 7 C2.01 7 1.02 7 0 7 C0 4.69 0 2.38 0 0 Z " fill="#00BAB4" transform="translate(222,191)"/>
<path d="M0 0 C0.66 0.33 1.32 0.66 2 1 C1.75 4.375 1.75 4.375 1 8 C-1.0625 9.4375 -1.0625 9.4375 -3 10 C-2.21302675 6.58978257 -1.12880057 3.31114834 0 0 Z " fill="#D4F3F2" transform="translate(318,498)"/>
<path d="M0 0 C1.98 0 3.96 0 6 0 C6 0.99 6 1.98 6 3 C5.34 3.66 4.68 4.32 4 5 C3.34 4.67 2.68 4.34 2 4 C2 3.34 2 2.68 2 2 C1.34 1.34 0.68 0.68 0 0 Z " fill="#BCEDEB" transform="translate(297,500)"/>
</svg>
